# xmcd
#
# Track frame offsets:
# 225
# 19288
# 31866
# 46927
# 61502
# 74617
# 88536
# 100476
# 115274
# 124763
# 139988
# 156121
# 170616
# 182287
#
# Disc length: 2616 seconds
#
#
# Revision: 3
# Processed by: cddbd v1.5.1PL2 Copyright (c) Steve Scherf et al.
# Submitted via: FreeRIP 2.945 
#
DISCID=b90a350e
DTITLE=Kneipenknaller CD 1 - Kneipenknaller [CD 1)
DYEAR=1900
DGENRE=Pop
TTITLE0=Toni aus dem Ötztal - Gemma Bier trinken
TTITLE1=Tops - Die Hände zum Himmel
TTITLE2=Ibo - Alter Schwede
TTITLE3=Die Alpenrammler - Wodka und 'ne Schnalle
TTITLE4=Casanovas a.d. Zillertal - Ich möcht' Dich noch einmal
TTITLE5=Tennessee - Ein Bier, ein Bier
TTITLE6=Die 3 Besoffkis - Wir trinken das schäumende Bier
TTITLE7=Servus aus Tirol - Alles bingo
TTITLE8=Gottlieb Wendehals - Dein Mann steht in der Kneipe
TTITLE9=Roland Brüggen - Kriminaltango 2000
TTITLE10=Das Guido - 100 Liter Bier
TTITLE11=Bernie - Wir geh'n nicht nach Hause
TTITLE12=Dee Jam's Bond - Der Partyhengst (vom Ballermann)
TTITLE13=Eugen and Akkord Malocher - Freunde
EXTD=
EXTT0=
EXTT1=
EXTT2=
EXTT3=
EXTT4=
EXTT5=
EXTT6=
EXTT7=
EXTT8=
EXTT9=
EXTT10=
EXTT11=
EXTT12=
EXTT13=
PLAYORDER=
